<svg version="1.1" viewbox="0 0 360 360" xmlns="http://www.w3.org/2000/svg" xmlns:xlink="http://www.w3.org/1999/xlink" style="display: block;"><g id="svgg"><path id="path0" d="M287.600 235.371 C 281.624 237.029,280.341 238.709,273.207 254.200 C 272.700 255.300,271.611 257.640,270.787 259.400 C 269.963 261.160,268.638 263.995,267.844 265.700 C 267.050 267.405,265.791 270.105,265.046 271.700 C 258.952 284.754,258.537 285.656,257.839 287.349 C 256.005 291.795,257.538 298.717,261.136 302.244 C 267.755 308.733,279.554 307.082,283.511 299.113 C 284.785 296.549,290.000 285.508,290.000 285.376 C 290.000 285.313,290.919 283.313,292.041 280.931 C 293.164 278.549,294.583 275.520,295.194 274.200 C 295.804 272.880,296.977 270.360,297.798 268.600 C 298.620 266.840,299.902 264.095,300.646 262.500 C 301.391 260.905,302.665 258.205,303.478 256.500 C 309.170 244.564,299.731 232.004,287.600 235.371 " stroke="none" fill="#fd8085" fill-rule="evenodd"></path><path id="path1" d="M263.632 184.634 C 259.855 186.006,257.266 188.360,255.546 191.988 C 254.054 195.134,251.350 200.916,250.302 203.200 C 249.747 204.410,248.732 206.615,248.046 208.100 C 247.361 209.585,246.239 212.015,245.554 213.500 C 244.868 214.985,243.855 217.190,243.302 218.400 C 242.749 219.610,241.330 222.647,240.148 225.150 C 238.967 227.652,238.000 229.761,238.000 229.835 C 238.000 229.909,236.920 232.248,235.600 235.033 C 234.280 237.817,233.200 240.154,233.200 240.225 C 233.200 240.295,232.199 242.475,230.976 245.068 C 225.749 256.151,228.221 264.584,237.578 267.593 C 245.453 270.125,251.131 266.875,255.729 257.200 C 259.752 248.737,262.000 243.930,262.000 243.790 C 262.000 243.720,262.919 241.713,264.042 239.331 C 265.165 236.949,266.515 234.055,267.042 232.900 C 269.318 227.912,270.075 226.268,272.800 220.400 C 274.384 216.990,276.134 213.210,276.690 212.000 C 277.246 210.790,278.486 208.115,279.444 206.055 C 283.173 198.045,282.605 192.504,277.555 187.602 C 274.238 184.384,267.989 183.052,263.632 184.634 M221.400 282.774 C 211.124 285.276,209.789 299.840,219.422 304.368 C 221.552 305.370,226.363 305.511,228.451 304.633 C 241.467 299.163,235.104 279.438,221.400 282.774 " stroke="none" fill="#fff053" fill-rule="evenodd"></path><path id="path2" d="M216.508 83.646 C 213.181 84.925,210.749 87.551,208.575 92.215 C 205.197 99.457,204.309 101.383,203.599 103.000 C 203.212 103.880,201.008 108.650,198.702 113.600 C 196.395 118.550,194.054 123.590,193.500 124.800 C 190.405 131.556,188.100 136.510,184.656 143.800 L 182.200 149.000 182.200 153.200 C 182.200 163.603,192.114 170.080,201.298 165.678 C 206.234 163.312,206.185 163.393,216.900 140.000 C 219.681 133.929,222.336 128.208,224.759 123.069 C 225.881 120.687,226.800 118.685,226.800 118.619 C 226.800 118.553,227.763 116.452,228.939 113.950 C 235.183 100.672,235.600 99.559,235.600 96.165 C 235.600 86.610,225.694 80.115,216.508 83.646 M174.432 178.447 C 167.892 181.715,166.169 190.900,171.064 196.403 C 175.324 201.193,183.876 201.193,188.136 196.403 C 194.638 189.093,189.351 177.200,179.600 177.200 C 177.409 177.200,176.479 177.424,174.432 178.447 M158.200 213.712 C 155.702 214.732,154.153 215.750,152.716 217.315 C 151.375 218.777,150.507 220.496,145.711 231.200 C 145.169 232.410,144.000 235.020,143.112 237.000 C 142.225 238.980,140.921 241.860,140.213 243.400 C 138.203 247.778,137.901 249.012,138.080 252.133 C 138.836 265.383,156.345 268.897,162.327 257.000 C 162.991 255.680,164.969 251.360,166.723 247.400 C 170.508 238.852,171.675 236.270,173.320 232.800 C 176.747 225.575,174.383 217.767,167.751 214.403 C 165.481 213.252,160.254 212.873,158.200 213.712 M132.400 272.171 C 129.759 272.904,128.124 273.855,126.206 275.773 C 124.583 277.396,124.016 278.406,120.636 285.700 C 119.846 287.405,118.592 290.105,117.849 291.700 C 117.106 293.295,115.592 296.580,114.484 299.000 C 113.376 301.420,111.669 305.110,110.690 307.200 C 109.711 309.290,108.502 311.900,108.004 313.000 C 107.506 314.100,105.884 317.610,104.401 320.800 C 102.917 323.990,101.248 327.590,100.691 328.800 C 100.134 330.010,98.901 332.620,97.949 334.600 C 92.723 345.477,98.378 355.763,109.600 355.790 C 116.369 355.806,119.995 353.275,122.976 346.451 C 124.074 343.937,125.811 340.185,129.645 332.052 C 130.720 329.770,131.600 327.852,131.600 327.789 C 131.600 327.726,132.431 325.902,133.446 323.737 C 134.461 321.572,136.872 316.380,138.803 312.200 C 142.412 304.390,144.125 300.697,146.860 294.825 C 149.335 289.514,149.727 287.987,149.512 284.486 C 148.976 275.727,140.796 269.841,132.400 272.171 M332.933 329.184 C 327.088 330.576,323.047 337.584,324.828 343.240 C 328.941 356.305,347.000 353.850,347.000 340.226 C 347.000 332.430,340.552 327.369,332.933 329.184 " stroke="none" fill="#21e28a" fill-rule="evenodd"></path><path id="path3" d="M192.886 44.332 C 190.956 45.021,189.514 46.003,188.087 47.600 C 187.593 48.153,183.791 55.765,178.598 66.600 C 177.438 69.020,174.696 74.696,172.504 79.214 C 167.711 89.094,167.465 89.791,167.678 92.940 C 168.305 102.218,180.544 107.346,187.616 101.293 C 189.281 99.868,189.960 98.593,198.307 81.200 C 199.627 78.450,202.279 72.960,204.200 69.000 C 209.256 58.578,209.200 58.729,209.200 55.426 C 209.200 47.560,200.472 41.624,192.886 44.332 M165.117 107.735 C 160.520 109.035,158.771 111.115,154.011 120.943 C 149.552 130.151,144.515 140.510,139.397 151.000 C 131.001 168.209,126.971 176.478,123.706 183.200 C 121.836 187.050,118.593 193.710,116.500 198.000 C 101.601 228.542,101.337 229.102,100.764 231.379 C 98.595 239.991,107.260 248.495,116.056 246.387 C 122.457 244.852,121.946 245.632,137.400 213.800 C 144.769 198.621,149.461 188.989,160.001 167.400 C 162.472 162.340,165.710 155.680,167.197 152.600 C 168.685 149.520,172.103 142.500,174.794 137.000 C 181.828 122.624,181.338 123.895,181.350 120.000 C 181.374 111.351,173.466 105.376,165.117 107.735 M95.781 255.311 C 83.693 260.165,86.673 277.400,99.600 277.400 C 114.554 277.400,114.945 255.442,100.000 254.925 C 98.310 254.866,96.468 255.035,95.781 255.311 M310.372 283.721 C 304.297 285.445,303.236 286.895,295.096 304.600 C 291.267 312.928,290.364 314.865,287.750 320.354 C 286.347 323.299,285.200 325.767,285.200 325.839 C 285.200 325.911,284.087 328.272,282.726 331.085 L 280.252 336.200 280.226 340.400 C 280.146 353.238,294.331 359.486,303.780 350.775 C 305.420 349.264,306.709 346.983,310.243 339.337 C 310.989 337.721,312.251 335.005,313.046 333.300 C 315.013 329.084,317.032 324.758,318.600 321.400 C 319.319 319.860,320.492 317.340,321.208 315.800 C 321.923 314.260,323.486 310.930,324.681 308.400 C 328.631 300.036,329.089 297.619,327.573 293.121 C 325.089 285.746,317.621 281.665,310.372 283.721 M78.976 284.349 C 76.747 284.929,73.950 286.555,72.240 288.265 C 70.381 290.124,70.281 290.313,64.294 303.200 C 61.994 308.150,59.524 313.460,58.804 315.000 C 55.926 321.155,54.461 324.301,53.494 326.400 C 52.937 327.610,51.646 330.375,50.626 332.545 C 48.424 337.230,47.818 339.744,48.141 342.842 C 49.410 354.983,64.306 359.850,72.681 350.860 C 73.966 349.480,74.512 348.479,77.620 341.800 C 79.380 338.017,81.098 334.332,83.354 329.500 C 84.098 327.905,85.379 325.160,86.200 323.400 C 89.261 316.836,90.348 314.508,91.988 311.000 C 96.168 302.060,96.400 301.386,96.400 298.209 C 96.400 289.162,87.547 282.120,78.976 284.349 " stroke="none" fill="#3092ec" fill-rule="evenodd"></path><path id="path4" d="M240.684 135.864 C 234.373 138.048,231.363 145.692,234.392 151.845 C 239.710 162.648,255.841 158.844,255.784 146.800 C 255.744 138.520,248.394 133.196,240.684 135.864 M224.772 162.921 C 222.143 163.667,219.465 165.350,218.036 167.154 C 217.009 168.451,213.200 175.564,213.200 176.185 C 213.200 176.287,212.120 178.648,210.800 181.433 C 209.480 184.217,208.400 186.547,208.400 186.611 C 208.400 186.674,207.569 188.498,206.553 190.663 C 205.538 192.828,203.918 196.282,202.953 198.337 C 201.989 200.392,201.200 202.126,201.200 202.189 C 201.200 202.253,200.120 204.583,198.800 207.367 C 197.480 210.152,196.400 212.491,196.400 212.565 C 196.400 212.639,195.434 214.748,194.254 217.250 C 188.519 229.411,188.400 229.728,188.400 232.845 C 188.400 244.528,201.331 250.989,210.587 243.930 C 212.621 242.379,214.068 240.243,216.096 235.800 C 216.899 234.040,218.306 230.980,219.223 229.000 C 220.140 227.020,221.929 223.150,223.198 220.400 C 224.467 217.650,226.337 213.628,227.353 211.463 C 228.369 209.298,229.200 207.475,229.200 207.413 C 229.200 207.351,230.167 205.252,231.348 202.750 C 232.530 200.247,233.949 197.210,234.502 196.000 C 236.035 192.646,237.747 188.937,239.395 185.400 C 241.690 180.475,242.000 179.346,242.000 175.907 C 242.000 166.948,233.407 160.471,224.772 162.921 M181.800 258.220 C 178.354 259.941,176.492 262.359,173.631 268.828 C 172.227 272.003,170.586 275.680,169.983 277.000 C 169.380 278.320,168.397 280.480,167.798 281.800 C 167.198 283.120,165.969 285.820,165.066 287.800 C 160.249 298.366,165.398 307.780,176.000 307.792 C 181.800 307.798,185.386 305.469,187.840 300.100 C 189.960 295.463,191.020 293.105,194.000 286.400 C 195.710 282.550,197.712 278.140,198.447 276.600 C 204.004 264.957,192.886 252.681,181.800 258.220 " stroke="none" fill="#9964de" fill-rule="evenodd"></path></g></svg>
